<?xml version="1.0" standalone="no"?>
<!DOCTYPE svg PUBLIC "-//W3C//DTD SVG 20010904//EN"
 "http://www.w3.org/TR/2001/REC-SVG-20010904/DTD/svg10.dtd">
<svg version="1.0" xmlns="http://www.w3.org/2000/svg"
 width="260.000000pt" height="260.000000pt" viewBox="0 0 260.000000 260.000000"
 preserveAspectRatio="xMidYMid meet">
<metadata>
Created by potrace 1.14, written by Peter Selinger 2001-2017
</metadata>
<g transform="translate(0.000000,260.000000) scale(0.100000,-0.100000)"
fill="#000000" stroke="none">
<path d="M967 1838 c-42 -178 -119 -570 -113 -575 13 -14 21 15 75 274 30 142
57 261 61 266 3 4 54 -100 113 -230 l107 -238 0 -297 0 -298 50 0 50 0 1 203
0 202 18 -45 c10 -25 44 -116 75 -202 l58 -158 43 0 42 0 79 208 79 207 3
-207 2 -208 50 0 50 0 0 300 0 300 -64 0 -65 0 -21 -57 c-12 -32 -49 -132 -82
-223 -33 -91 -63 -168 -67 -173 -4 -4 -43 95 -88 220 -76 214 -82 228 -107
231 -21 3 -25 7 -21 25 8 32 105 489 105 493 0 2 -6 4 -13 4 -9 0 -30 -83 -67
-260 -43 -206 -58 -260 -70 -260 -11 0 -52 80 -131 258 -113 252 -139 293
-152 240z"/>
</g>
</svg>
