<?xml version="1.0" standalone="no"?>
<!DOCTYPE svg PUBLIC "-//W3C//DTD SVG 20010904//EN"
 "http://www.w3.org/TR/2001/REC-SVG-20010904/DTD/svg10.dtd">
<svg version="1.0" xmlns="http://www.w3.org/2000/svg"
 width="2042.000000pt" height="2042.000000pt" viewBox="0 0 2042.000000 2042.000000"
 preserveAspectRatio="xMidYMid meet">
<metadata>
Created by potrace 1.14, written by Peter Selinger 2001-2017
</metadata>
<g transform="translate(0.000000,2042.000000) scale(0.100000,-0.100000)"
fill="#000000" stroke="none">
<path d="M0 10210 l0 -10210 10210 0 10210 0 0 10210 0 10210 -10210 0 -10210
0 0 -10210z m7698 4483 c60 -142 195 -458 300 -703 104 -245 348 -816 542
-1270 194 -454 400 -936 458 -1073 58 -136 108 -244 112 -240 4 5 172 796 374
1758 202 963 370 1758 372 1768 5 16 35 17 445 17 241 0 439 -3 439 -8 0 -4
-36 -178 -81 -387 -44 -209 -147 -697 -229 -1085 -82 -388 -181 -856 -220
-1040 -60 -284 -198 -934 -336 -1590 -19 -91 -36 -174 -37 -185 -2 -20 6 -20
337 -25 l339 -5 403 -1265 c223 -696 459 -1438 527 -1648 67 -211 126 -384
131 -385 4 -1 247 742 539 1651 l531 1652 778 0 778 0 0 -2485 0 -2485 -635 0
-635 0 -2 1353 -3 1352 -92 -280 c-97 -297 -747 -2312 -767 -2380 l-12 -40
-491 -3 c-461 -2 -491 -1 -498 15 -8 22 -14 42 -395 1228 -166 517 -340 1059
-388 1205 l-87 265 -3 -1358 -2 -1357 -618 2 -617 3 -3 2158 -2 2157 -33 0
c-25 0 -36 6 -44 23 -10 21 -1469 3423 -1500 3496 -8 18 -16 31 -18 29 -4 -4
-594 -2793 -708 -3345 l-41 -203 -443 0 c-391 0 -443 2 -443 15 0 13 192 929
335 1600 19 88 52 246 74 350 53 248 98 460 165 780 30 143 96 454 146 690 50
237 99 468 109 515 10 47 63 295 117 553 l99 467 411 0 412 0 110 -257z"/>
</g>
</svg>
